<mxfile host="Electron" modified="2025-04-07T17:47:54.662Z" agent="Mozilla/5.0 (Windows NT 10.0; Win64; x64) AppleWebKit/537.36 (KHTML, like Gecko) draw.io/22.0.0 Chrome/114.0.5735.289 Electron/25.8.3 Safari/537.36" etag="5RH7UmNEuwqBddJzXYol" version="22.0.0" type="device">
  <diagram id="C5RBs43oDa-KdzZeNtuy" name="Page-1">
    <mxGraphModel dx="669" dy="788" grid="1" gridSize="10" guides="1" tooltips="1" connect="1" arrows="1" fold="1" page="1" pageScale="1" pageWidth="827" pageHeight="1169" math="0" shadow="0">
      <root>
        <mxCell id="WIyWlLk6GJQsqaUBKTNV-0" />
        <mxCell id="WIyWlLk6GJQsqaUBKTNV-1" parent="WIyWlLk6GJQsqaUBKTNV-0" />
        <mxCell id="8JLBQAUEPFs531ZsQ0yf-9" style="edgeStyle=orthogonalEdgeStyle;rounded=0;orthogonalLoop=1;jettySize=auto;html=1;exitX=0.5;exitY=1;exitDx=0;exitDy=0;entryX=0.5;entryY=0;entryDx=0;entryDy=0;" edge="1" parent="WIyWlLk6GJQsqaUBKTNV-1" source="8JLBQAUEPFs531ZsQ0yf-0" target="8JLBQAUEPFs531ZsQ0yf-3">
          <mxGeometry relative="1" as="geometry" />
        </mxCell>
        <mxCell id="8JLBQAUEPFs531ZsQ0yf-0" value="START" style="ellipse;whiteSpace=wrap;html=1;" vertex="1" parent="WIyWlLk6GJQsqaUBKTNV-1">
          <mxGeometry x="265" y="234" width="110" height="60" as="geometry" />
        </mxCell>
        <mxCell id="8JLBQAUEPFs531ZsQ0yf-5" value="" style="edgeStyle=orthogonalEdgeStyle;rounded=0;orthogonalLoop=1;jettySize=auto;html=1;" edge="1" parent="WIyWlLk6GJQsqaUBKTNV-1" source="8JLBQAUEPFs531ZsQ0yf-3" target="8JLBQAUEPFs531ZsQ0yf-4">
          <mxGeometry relative="1" as="geometry" />
        </mxCell>
        <mxCell id="8JLBQAUEPFs531ZsQ0yf-3" value="Initialize BME688, RTC DS1307, SD Card, Led Panel P5, Fan, Buzzer" style="rounded=1;whiteSpace=wrap;html=1;" vertex="1" parent="WIyWlLk6GJQsqaUBKTNV-1">
          <mxGeometry x="235" y="323" width="170" height="60" as="geometry" />
        </mxCell>
        <mxCell id="8JLBQAUEPFs531ZsQ0yf-7" value="" style="edgeStyle=orthogonalEdgeStyle;rounded=0;orthogonalLoop=1;jettySize=auto;html=1;" edge="1" parent="WIyWlLk6GJQsqaUBKTNV-1" source="8JLBQAUEPFs531ZsQ0yf-4" target="8JLBQAUEPFs531ZsQ0yf-6">
          <mxGeometry relative="1" as="geometry" />
        </mxCell>
        <mxCell id="8JLBQAUEPFs531ZsQ0yf-4" value="Turn on Fan" style="whiteSpace=wrap;html=1;rounded=1;" vertex="1" parent="WIyWlLk6GJQsqaUBKTNV-1">
          <mxGeometry x="260" y="418" width="120" height="60" as="geometry" />
        </mxCell>
        <mxCell id="8JLBQAUEPFs531ZsQ0yf-11" value="" style="edgeStyle=orthogonalEdgeStyle;rounded=0;orthogonalLoop=1;jettySize=auto;html=1;" edge="1" parent="WIyWlLk6GJQsqaUBKTNV-1" source="8JLBQAUEPFs531ZsQ0yf-6" target="8JLBQAUEPFs531ZsQ0yf-10">
          <mxGeometry relative="1" as="geometry" />
        </mxCell>
        <mxCell id="8JLBQAUEPFs531ZsQ0yf-6" value="Read Temp, Hum, Press, IAQ, CO2, VOC" style="whiteSpace=wrap;html=1;rounded=1;" vertex="1" parent="WIyWlLk6GJQsqaUBKTNV-1">
          <mxGeometry x="232.5" y="508" width="175" height="60" as="geometry" />
        </mxCell>
        <mxCell id="8JLBQAUEPFs531ZsQ0yf-15" value="" style="edgeStyle=orthogonalEdgeStyle;rounded=0;orthogonalLoop=1;jettySize=auto;html=1;" edge="1" parent="WIyWlLk6GJQsqaUBKTNV-1" source="8JLBQAUEPFs531ZsQ0yf-10" target="8JLBQAUEPFs531ZsQ0yf-14">
          <mxGeometry relative="1" as="geometry" />
        </mxCell>
        <mxCell id="8JLBQAUEPFs531ZsQ0yf-16" style="edgeStyle=orthogonalEdgeStyle;rounded=0;orthogonalLoop=1;jettySize=auto;html=1;exitX=1;exitY=0.5;exitDx=0;exitDy=0;entryX=0;entryY=0.5;entryDx=0;entryDy=0;" edge="1" parent="WIyWlLk6GJQsqaUBKTNV-1" source="8JLBQAUEPFs531ZsQ0yf-10" target="8JLBQAUEPFs531ZsQ0yf-12">
          <mxGeometry relative="1" as="geometry" />
        </mxCell>
        <mxCell id="8JLBQAUEPFs531ZsQ0yf-10" value="IAQ &amp;gt; 150 ?" style="rhombus;whiteSpace=wrap;html=1;rounded=1;" vertex="1" parent="WIyWlLk6GJQsqaUBKTNV-1">
          <mxGeometry x="245" y="598" width="150" height="80" as="geometry" />
        </mxCell>
        <mxCell id="8JLBQAUEPFs531ZsQ0yf-12" value="Activate&lt;br&gt;&amp;nbsp;Buzzer" style="whiteSpace=wrap;html=1;rounded=1;" vertex="1" parent="WIyWlLk6GJQsqaUBKTNV-1">
          <mxGeometry x="459" y="608" width="90" height="60" as="geometry" />
        </mxCell>
        <mxCell id="8JLBQAUEPFs531ZsQ0yf-19" value="" style="edgeStyle=orthogonalEdgeStyle;rounded=0;orthogonalLoop=1;jettySize=auto;html=1;" edge="1" parent="WIyWlLk6GJQsqaUBKTNV-1" source="8JLBQAUEPFs531ZsQ0yf-14" target="8JLBQAUEPFs531ZsQ0yf-18">
          <mxGeometry relative="1" as="geometry" />
        </mxCell>
        <mxCell id="8JLBQAUEPFs531ZsQ0yf-14" value="Display data on LED Panel P5" style="whiteSpace=wrap;html=1;rounded=1;" vertex="1" parent="WIyWlLk6GJQsqaUBKTNV-1">
          <mxGeometry x="235" y="708" width="170" height="60" as="geometry" />
        </mxCell>
        <mxCell id="8JLBQAUEPFs531ZsQ0yf-21" value="" style="edgeStyle=orthogonalEdgeStyle;rounded=0;orthogonalLoop=1;jettySize=auto;html=1;" edge="1" parent="WIyWlLk6GJQsqaUBKTNV-1" source="8JLBQAUEPFs531ZsQ0yf-18" target="8JLBQAUEPFs531ZsQ0yf-20">
          <mxGeometry relative="1" as="geometry" />
        </mxCell>
        <mxCell id="8JLBQAUEPFs531ZsQ0yf-26" style="edgeStyle=orthogonalEdgeStyle;rounded=0;orthogonalLoop=1;jettySize=auto;html=1;exitX=1;exitY=0.5;exitDx=0;exitDy=0;entryX=1;entryY=0.5;entryDx=0;entryDy=0;" edge="1" parent="WIyWlLk6GJQsqaUBKTNV-1" source="8JLBQAUEPFs531ZsQ0yf-18" target="8JLBQAUEPFs531ZsQ0yf-6">
          <mxGeometry relative="1" as="geometry">
            <Array as="points">
              <mxPoint x="570" y="837" />
              <mxPoint x="570" y="538" />
            </Array>
          </mxGeometry>
        </mxCell>
        <mxCell id="8JLBQAUEPFs531ZsQ0yf-18" value="One hour elapsed ?" style="rhombus;whiteSpace=wrap;html=1;rounded=1;" vertex="1" parent="WIyWlLk6GJQsqaUBKTNV-1">
          <mxGeometry x="240" y="797" width="160" height="80" as="geometry" />
        </mxCell>
        <mxCell id="8JLBQAUEPFs531ZsQ0yf-25" style="edgeStyle=orthogonalEdgeStyle;rounded=0;orthogonalLoop=1;jettySize=auto;html=1;exitX=0.5;exitY=1;exitDx=0;exitDy=0;entryX=0.5;entryY=0;entryDx=0;entryDy=0;" edge="1" parent="WIyWlLk6GJQsqaUBKTNV-1" source="8JLBQAUEPFs531ZsQ0yf-20" target="8JLBQAUEPFs531ZsQ0yf-24">
          <mxGeometry relative="1" as="geometry" />
        </mxCell>
        <mxCell id="8JLBQAUEPFs531ZsQ0yf-20" value="Store data to SD Card" style="whiteSpace=wrap;html=1;rounded=1;" vertex="1" parent="WIyWlLk6GJQsqaUBKTNV-1">
          <mxGeometry x="255" y="904" width="130" height="60" as="geometry" />
        </mxCell>
        <mxCell id="8JLBQAUEPFs531ZsQ0yf-24" value="Loop" style="ellipse;whiteSpace=wrap;html=1;" vertex="1" parent="WIyWlLk6GJQsqaUBKTNV-1">
          <mxGeometry x="265" y="989" width="110" height="60" as="geometry" />
        </mxCell>
        <mxCell id="8JLBQAUEPFs531ZsQ0yf-27" value="No" style="text;html=1;strokeColor=none;fillColor=none;align=center;verticalAlign=middle;whiteSpace=wrap;rounded=0;" vertex="1" parent="WIyWlLk6GJQsqaUBKTNV-1">
          <mxGeometry x="384" y="810" width="60" height="30" as="geometry" />
        </mxCell>
        <mxCell id="8JLBQAUEPFs531ZsQ0yf-28" value="No" style="text;html=1;strokeColor=none;fillColor=none;align=center;verticalAlign=middle;whiteSpace=wrap;rounded=0;" vertex="1" parent="WIyWlLk6GJQsqaUBKTNV-1">
          <mxGeometry x="310" y="570" width="60" height="30" as="geometry" />
        </mxCell>
        <mxCell id="8JLBQAUEPFs531ZsQ0yf-29" value="Yes" style="text;html=1;strokeColor=none;fillColor=none;align=center;verticalAlign=middle;whiteSpace=wrap;rounded=0;" vertex="1" parent="WIyWlLk6GJQsqaUBKTNV-1">
          <mxGeometry x="310" y="874" width="60" height="30" as="geometry" />
        </mxCell>
        <mxCell id="8JLBQAUEPFs531ZsQ0yf-30" value="Yes" style="text;html=1;strokeColor=none;fillColor=none;align=center;verticalAlign=middle;whiteSpace=wrap;rounded=0;" vertex="1" parent="WIyWlLk6GJQsqaUBKTNV-1">
          <mxGeometry x="380" y="608" width="60" height="30" as="geometry" />
        </mxCell>
      </root>
    </mxGraphModel>
  </diagram>
</mxfile>
